# xmcd
#
# Track frame offsets:
#	150
#	21299
#	36184
#	52136
#	63000
#	77607
#	88577
#	106216
#	124381
#	142698
#	155567
#	168549
#	186679
#	201303
#
# Disc length: 2914 seconds
#
# Revision: 0
# Processed by: cddbd v1.4PL0 Copyright (c) Steve Scherf et al.
# Submitted via: dBpowerAMP V4.0
#
DISCID=c30b600e
DTITLE=Vários - Bailão do Peão Internacional
DYEAR=1998
DGENRE=Country
TTITLE0=Achy Break Heart
TTITLE1=Emotional Girl 
TTITLE2=Jacky Don Tucker (Play By The Rules Miss All The Fun)
TTITLE3=The Ballad Of Day Crockett
TTITLE4=Cotton Eye Joe
TTITLE5=Anywhere But Here
TTITLE6=South Moon River
TTITLE7=455 Rocket
TTITLE8=I'm So Happy I Can't Stop Crying
TTITLE9=Third Rock From The Sum
TTITLE10=Wanted Man
TTITLE11=Just My Luck
TTITLE12=I Liked, Love It
TTITLE13=By my Babe Tonight
EXTD=Bailão de Peão Internacional\nBy Aldo San Martin - 2003
EXTT0=
EXTT1=
EXTT2=
EXTT3=
EXTT4=
EXTT5=
EXTT6=
EXTT7=
EXTT8=
EXTT9=
EXTT10=
EXTT11=
EXTT12=
EXTT13=
PLAYORDER=
